<?xml version="1.0" encoding="utf-8"?>
<!-- Generator: Adobe Illustrator 27.2.0, SVG Export Plug-In . SVG Version: 6.00 Build 0)  -->
<svg version="1.1" id="Calque_1" xmlns="http://www.w3.org/2000/svg" xmlns:xlink="http://www.w3.org/1999/xlink" x="0px" y="0px"
	 viewBox="0 0 150 80" style="enable-background:new 0 0 150 80;" xml:space="preserve">
<g>
	<g>
		<path d="M124.26,25.69h0.22c5.33,0,9.75,2.38,9.62,12.26h7.02c0.1-7.32-2.84-12.49-9.31-14.58c5.9-1.95,8.32-6.8,8.23-15.23h-7.02
			c0.13,9.23-1.3,13.95-8.75,13.95h-0.56v3.59h0.22H124.26z"/>
		<rect x="114.47" y="8.14" width="7.02" height="29.81"/>
		<path d="M85.87,11.74h7.58c4.29,0,6.63,2.51,6.63,6.02s-2.34,6.07-6.63,6.07h-5.11v3.6c0,5.89,2.69,10.53,9.23,10.53h8.93v-6.37
			H96.36c-3.81,0-4.42-2.43-4.42-4.16h4.07c7.37,0,11.09-4.29,11.09-9.66c0-5.33-3.73-9.62-11.09-9.62H78.85v29.81h7.02V11.74z"/>
		<path d="M50.87,18.93c0-5.63,2.82-7.8,6.33-7.8c3.47,0,6.28,2.17,6.28,7.8v7.8c-2.73-2.17-6.59-2.9-10.4-2.9v3.6h0.39
			c3.64,0,10.18,1,10.18,10.53h6.85V21.49c0-9.23-5.72-13.95-13.3-13.95c-7.58,0-13.35,4.72-13.35,13.95v16.46h7.02V18.93z"/>
		<path d="M25.91,27.42h0.39v-3.6c-3.81,0-7.67,0.74-10.4,2.9V8.14H8.88v29.81h6.85C15.73,28.42,22.27,27.42,25.91,27.42z"/>
		<rect x="28.51" y="8.14" width="7.02" height="29.81"/>
	</g>
	<g>
		<path d="M46.02,63.56L46.02,63.56H44.6c-0.51,0-0.95,0.36-1.02,0.84c-0.04,0.28,0.04,0.57,0.23,0.78
			c0.19,0.21,0.45,0.34,0.74,0.34h12.64c0.28,0,0.55-0.12,0.74-0.34c0.19-0.21,0.27-0.5,0.23-0.78c-0.07-0.48-0.5-0.84-1.02-0.84
			h-7.88c-0.36,0-0.64-0.29-0.64-0.64v-1.25c0-0.35,0.29-0.64,0.64-0.64h5.6c0.51,0,0.95-0.36,1.02-0.84
			c0.04-0.28-0.04-0.57-0.23-0.78c-0.19-0.21-0.45-0.34-0.74-0.34h-5.65c-0.36,0-0.64-0.29-0.64-0.64v-1.25
			c0-0.35,0.29-0.64,0.64-0.64h7.84c0.51,0,0.95-0.36,1.02-0.84c0.04-0.28-0.04-0.57-0.23-0.78c-0.19-0.21-0.45-0.34-0.74-0.34H44.6
			c-0.51,0-0.95,0.36-1.02,0.84c-0.04,0.28,0.04,0.57,0.23,0.78c0.19,0.21,0.45,0.34,0.74,0.34h1.46c0.36,0,0.64,0.29,0.64,0.64
			v5.74C46.66,63.27,46.37,63.56,46.02,63.56z"/>
		<path d="M93.09,63.56h-1.19c-0.07,0-0.13-0.04-0.16-0.1l-4.46-8.36c-0.17-0.32-0.5-0.52-0.86-0.52h-6.01
			c-0.51,0-0.95,0.36-1.02,0.84c-0.04,0.28,0.04,0.57,0.23,0.78c0.19,0.21,0.45,0.34,0.74,0.34h1.79c0.08,0,0.15,0.04,0.19,0.11
			c0.04,0.07,0.04,0.15,0.01,0.22l-3.53,6.6c-0.03,0.06-0.09,0.1-0.16,0.1h-1.42c-0.51,0-0.95,0.36-1.02,0.84
			c-0.04,0.28,0.04,0.57,0.23,0.78c0.19,0.21,0.45,0.34,0.74,0.34l-0.01,0h5.24c0.51,0,0.95-0.36,1.02-0.84
			c0.04-0.28-0.04-0.57-0.23-0.78c-0.19-0.21-0.45-0.34-0.74-0.34h-1.19c-0.07,0-0.12-0.03-0.16-0.09c-0.03-0.06-0.03-0.12,0-0.18
			l0.36-0.68h7.38c0.13,0,0.25,0.07,0.31,0.19l0.26,0.49c0.03,0.06,0.03,0.12,0,0.18c-0.03,0.06-0.09,0.09-0.16,0.09h-1.02
			c-0.51,0-0.95,0.36-1.02,0.84c-0.04,0.28,0.04,0.57,0.23,0.78c0.19,0.21,0.45,0.34,0.74,0.34h4.93c0.28,0,0.55-0.12,0.74-0.34
			c0.19-0.21,0.27-0.5,0.23-0.78C94.04,63.92,93.61,63.56,93.09,63.56z M87.73,60.49c-0.07,0.11-0.18,0.17-0.31,0.17h-4.31
			c-0.13,0-0.24-0.07-0.31-0.17c-0.07-0.11-0.07-0.24-0.01-0.35h0.01l1.82-3.41c0.06-0.12,0.18-0.19,0.31-0.19h0.67
			c0.13,0,0.25,0.07,0.31,0.19l1.82,3.41C87.8,60.25,87.8,60.38,87.73,60.49z"/>
		<path d="M61.37,56.54h1.89c0.35,0,0.64,0.29,0.64,0.64v5.74c0,0.35-0.29,0.64-0.64,0.64h-1.17c-0.51,0-0.95,0.36-1.02,0.84
			c-0.04,0.28,0.04,0.57,0.23,0.78s0.45,0.34,0.74,0.34h6.87c0.51,0,0.95-0.36,1.02-0.84c0.04-0.28-0.04-0.57-0.23-0.78
			c-0.19-0.21-0.45-0.34-0.74-0.34h-2.46c-0.36,0-0.64-0.29-0.64-0.64v-0.73c0-0.35,0.29-0.64,0.64-0.64h5.45l0.09-0.01
			c2.35-0.25,3.75-1.54,3.75-3.45c0-1.7-1.23-3.51-4.69-3.51h-9.67c-0.51,0-0.95,0.36-1.02,0.84c-0.04,0.28,0.04,0.57,0.23,0.78
			C60.81,56.42,61.08,56.54,61.37,56.54z M66.49,56.54h4.6c0.82,0,2.74,0.15,2.74,1.56c0,1.1-1.22,1.41-1.94,1.5h-5.39
			c-0.36,0-0.64-0.29-0.64-0.64v-1.78l0,0C65.85,56.83,66.14,56.54,66.49,56.54z"/>
		<path d="M97.21,65.51h8.02c0.51,0,0.95-0.36,1.02-0.84c0.04-0.28-0.04-0.57-0.23-0.78c-0.19-0.21-0.45-0.34-0.74-0.34h-2.42
			c-0.35,0-0.64-0.29-0.64-0.63v-5.75c0-0.35,0.29-0.63,0.64-0.63h2.42c0.28,0,0.55-0.12,0.74-0.34c0.19-0.21,0.27-0.5,0.23-0.78
			c-0.07-0.48-0.5-0.84-1.02-0.84h-7.96c-0.51,0-0.95,0.36-1.02,0.84c-0.04,0.28,0.04,0.57,0.23,0.78c0.19,0.21,0.45,0.34,0.74,0.34
			h2.42c0.35,0,0.64,0.29,0.64,0.63v5.75c0,0.35-0.29,0.63-0.64,0.63h-0.01h-2.37c-0.51,0-0.95,0.36-1.02,0.84
			c-0.04,0.28,0.04,0.57,0.23,0.78C96.66,65.39,96.93,65.51,97.21,65.51z"/>
		<path d="M26.22,56.54h1.03c0.35,0,0.64,0.28,0.64,0.63v5.75c0,0.35-0.28,0.63-0.64,0.63v0h-0.97c-0.51,0-0.95,0.36-1.02,0.84
			c-0.04,0.28,0.04,0.57,0.23,0.78c0.19,0.21,0.45,0.34,0.74,0.34h5.54c0.51,0,0.95-0.36,1.02-0.84c0.04-0.28-0.04-0.57-0.23-0.78
			c-0.19-0.21-0.45-0.34-0.74-0.34h-1.34c-0.35,0-0.64-0.28-0.64-0.63v-0.74c0-0.35,0.28-0.63,0.64-0.63h3.23
			c0.42,0,0.81,0.18,1.09,0.49l2.5,2.85c0.35,0.39,0.85,0.62,1.37,0.62h1.47c0.28,0,0.55-0.12,0.74-0.34
			c0.19-0.21,0.27-0.5,0.23-0.78c-0.07-0.48-0.5-0.84-1.02-0.84h-1.33l-1.88-2.12c1.69-0.39,2.89-1.77,2.89-3.37
			c0-1.92-1.72-3.48-3.84-3.48h-9.66c-0.51,0-0.95,0.36-1.02,0.84c-0.04,0.28,0.04,0.57,0.23,0.78
			C25.67,56.42,25.94,56.54,26.22,56.54z M29.85,57.17c0-0.35,0.28-0.63,0.64-0.63h5.45c1.04,0,1.88,0.69,1.88,1.53
			c0,0.84-0.84,1.53-1.88,1.53h-5.45c-0.35,0-0.64-0.28-0.64-0.63V57.17z"/>
		<path d="M40.5,69.31L26.28,69.3c-0.51,0-0.95,0.36-1.02,0.84c-0.04,0.28,0.04,0.57,0.23,0.78c0.19,0.21,0.45,0.34,0.74,0.34
			l14.22,0.01c0.51,0,0.95-0.36,1.02-0.84c0.04-0.28-0.04-0.57-0.23-0.78C41.05,69.43,40.78,69.31,40.5,69.31z"/>
		<path d="M123.39,69.31l-13.17-0.01c-0.02,0-0.04,0-0.06,0.01l-12.9-0.01c-0.51,0-0.95,0.36-1.02,0.84
			c-0.04,0.28,0.04,0.57,0.23,0.78c0.19,0.21,0.45,0.34,0.74,0.34l22.12,0.01c0.01,0,0.02,0,0.04,0l3.97,0
			c0.51,0,0.95-0.36,1.02-0.84c0.04-0.28-0.04-0.57-0.23-0.78C123.94,69.43,123.67,69.31,123.39,69.31z"/>
		<path d="M57.19,69.31L44.6,69.3c-0.51,0-0.95,0.36-1.02,0.84c-0.04,0.28,0.04,0.57,0.23,0.78c0.19,0.21,0.45,0.34,0.74,0.34
			l12.59,0.01c0.51,0,0.95-0.36,1.02-0.84c0.04-0.28-0.04-0.57-0.23-0.78C57.74,69.43,57.48,69.31,57.19,69.31z"/>
		<path d="M93.14,69.31L77.22,69.3c-0.02,0-0.05,0-0.07,0.01L61.42,69.3c-0.51,0-0.95,0.36-1.02,0.84
			c-0.04,0.28,0.04,0.57,0.23,0.78c0.19,0.21,0.45,0.34,0.74,0.34l23.46,0.01c0.02,0,0.04,0,0.06,0l8.21,0
			c0.51,0,0.95-0.36,1.02-0.84c0.04-0.28-0.04-0.57-0.23-0.78C93.69,69.43,93.42,69.31,93.14,69.31z"/>
		<path d="M109.44,50.67l13.9,0.01c0.51,0,0.95-0.36,1.02-0.84c0.04-0.28-0.04-0.57-0.23-0.78c-0.19-0.21-0.45-0.34-0.74-0.34
			l-13.9-0.01c-0.51,0-0.95,0.36-1.02,0.84c-0.04,0.28,0.04,0.57,0.23,0.78C108.89,50.55,109.16,50.67,109.44,50.67z"/>
		<path d="M57.19,48.73L44.6,48.72c-0.02,0-0.04,0-0.07,0.01l-18.26-0.01c-0.51,0-0.95,0.36-1.02,0.84
			c-0.04,0.28,0.04,0.57,0.23,0.78c0.19,0.21,0.45,0.34,0.74,0.34l30.23,0.01c0,0,0,0,0.01,0l0.68,0c0.51,0,0.95-0.36,1.02-0.84
			c0.04-0.28-0.04-0.57-0.23-0.78C57.74,48.85,57.48,48.73,57.19,48.73z"/>
		<path d="M61.37,50.67l12.66,0.01c0.51,0,0.95-0.36,1.02-0.84c0.04-0.28-0.04-0.57-0.23-0.78c-0.19-0.21-0.45-0.34-0.74-0.34
			l-12.66-0.01c-0.51,0-0.95,0.36-1.02,0.84c-0.04,0.28,0.04,0.57,0.23,0.78C60.81,50.55,61.08,50.67,61.37,50.67z"/>
		<path d="M78.28,50.67l14.69,0.01c0.51,0,0.95-0.36,1.02-0.84c0.04-0.28-0.04-0.57-0.23-0.78c-0.19-0.21-0.45-0.34-0.74-0.34
			l-14.69-0.01c-0.51,0-0.95,0.36-1.02,0.84c-0.04,0.28,0.04,0.57,0.23,0.78C77.73,50.55,78,50.67,78.28,50.67z"/>
		<path d="M97.21,50.67l8.02,0.01c0.51,0,0.95-0.36,1.02-0.84c0.04-0.28-0.04-0.57-0.23-0.78c-0.19-0.21-0.45-0.34-0.74-0.34
			l-8.02-0.01c-0.51,0-0.95,0.36-1.02,0.84c-0.04,0.28,0.04,0.57,0.23,0.78C96.66,50.55,96.93,50.67,97.21,50.67z"/>
		<path d="M109.44,56.54h1.03c0.35,0,0.64,0.28,0.64,0.63v5.75c0,0.35-0.28,0.63-0.64,0.63v0h-0.97c-0.51,0-0.95,0.36-1.02,0.84
			c-0.04,0.28,0.04,0.57,0.23,0.78c0.19,0.21,0.45,0.34,0.74,0.34h5.54c0.51,0,0.95-0.36,1.02-0.84c0.04-0.28-0.04-0.57-0.23-0.78
			c-0.19-0.21-0.45-0.34-0.74-0.34h-1.34c-0.35,0-0.64-0.28-0.64-0.63v-0.74c0-0.35,0.28-0.63,0.64-0.63h3.23
			c0.42,0,0.81,0.18,1.09,0.49l2.5,2.85c0.35,0.39,0.85,0.62,1.37,0.62h1.47c0.28,0,0.55-0.12,0.74-0.34
			c0.19-0.21,0.27-0.5,0.23-0.78c-0.07-0.48-0.5-0.84-1.02-0.84h-1.33l-1.88-2.12c1.69-0.39,2.89-1.77,2.89-3.37
			c0-1.92-1.72-3.48-3.84-3.48h-9.66c-0.51,0-0.95,0.36-1.02,0.84c-0.04,0.28,0.04,0.57,0.23,0.78
			C108.89,56.42,109.16,56.54,109.44,56.54z M113.07,57.17c0-0.35,0.28-0.63,0.64-0.63h5.45c1.04,0,1.88,0.69,1.88,1.53
			c0,0.84-0.84,1.53-1.88,1.53h-5.45c-0.35,0-0.64-0.28-0.64-0.63V57.17z"/>
	</g>
</g>
</svg>
