<?xml version="1.0" encoding="utf-8"?>
<!-- Generator: Adobe Illustrator 27.2.0, SVG Export Plug-In . SVG Version: 6.00 Build 0)  -->
<svg version="1.1" id="Calque_1" xmlns="http://www.w3.org/2000/svg" xmlns:xlink="http://www.w3.org/1999/xlink" x="0px" y="0px"
	 viewBox="0 0 150 80" style="enable-background:new 0 0 150 80;" xml:space="preserve">
<g>
	<path d="M25.03,27.42h0.39v-3.6c-3.81,0-7.67,0.74-10.4,2.9V8.14H8v29.81h6.85C14.85,28.42,21.39,27.42,25.03,27.42z"/>
	<rect x="27.63" y="8.14" width="7.02" height="29.81"/>
	<path d="M25.15,58.12c0-2.22-1.68-3.54-4.5-3.54h-7.86v10.89c0,0,0,0,0,0h2.62v-3.83h3.29l3.68,3.83l0,0c0,0,3.3,0.03,3.27,0
		l-3.8-3.92C23.92,61.22,25.15,59.95,25.15,58.12z M15.41,59.6v-2.98h5c1.27,0,2,0.54,2,1.48c0,0.97-0.71,1.5-2,1.5H15.41z"/>
	<polygon points="34.67,61.04 42.7,61.04 42.7,59.01 34.67,59.01 34.67,56.62 43.05,56.62 43.05,54.58 32.05,54.58 32.05,65.47 
		43.09,65.47 43.09,63.43 34.67,63.43 	"/>
	<g>
		<path d="M123.38,25.69h0.22c5.33,0,9.75,2.38,9.62,12.26h7.02c0.1-7.32-2.84-12.49-9.31-14.58c5.9-1.95,8.32-6.8,8.23-15.23h-7.02
			c0.13,9.23-1.3,13.95-8.75,13.95h-0.56v3.59h0.22H123.38z"/>
		<rect x="113.59" y="8.14" width="7.02" height="29.81"/>
		<path d="M84.99,11.74h7.58c4.29,0,6.63,2.51,6.63,6.02s-2.34,6.07-6.63,6.07h-5.11v3.6c0,5.89,2.69,10.53,9.23,10.53h8.93v-6.37
			H95.48c-3.81,0-4.42-2.43-4.42-4.16h4.07c7.37,0,11.09-4.29,11.09-9.66c0-5.33-3.73-9.62-11.09-9.62H77.98v29.81h7.02V11.74z"/>
		<path d="M49.99,18.93c0-5.63,2.82-7.8,6.33-7.8c3.47,0,6.28,2.17,6.28,7.8v7.8c-2.73-2.17-6.59-2.9-10.4-2.9v3.6h0.39
			c3.64,0,10.18,1,10.18,10.53h6.85V21.49c0-9.23-5.72-13.95-13.3-13.95c-7.58,0-13.35,4.72-13.35,13.95v16.46h7.02V18.93z"/>
		<path d="M56.82,54.29c-4.33,0-7.36,2.28-7.36,5.72c0,3.44,2.89,5.75,7.2,5.75c1.78,0,3.61-0.26,4.87-0.71v-2.43
			c-1.66,0.61-3.34,0.94-4.72,0.94c-3.12,0-4.52-1.8-4.52-3.56c0-1.75,1.4-3.53,4.52-3.53c1.63,0,3.52,0.33,4.72,0.97
			c0.03,0.02,0-2.45,0-2.45C59.79,54.5,58.2,54.29,56.82,54.29z"/>
		<path d="M75.44,54.29c-4.21,0-7.16,2.33-7.16,5.72c0,3.38,2.94,5.75,7.16,5.75c4.22,0,7.17-2.38,7.17-5.75
			C82.61,56.64,79.65,54.29,75.44,54.29z M75.44,63.57c-2.65,0-4.37-1.42-4.37-3.56c0-2.14,1.71-3.53,4.37-3.53
			c2.66,0,4.38,1.36,4.38,3.53C79.82,62.17,78.09,63.57,75.44,63.57z"/>
		<path d="M100.88,58.12c0-2.22-1.68-3.54-4.5-3.54h-7.75c-0.06,0-0.1,0.05-0.1,0.1v10.78c0,0,0,0,0,0h2.62v-3.83h3.29l3.68,3.83
			h3.27l-3.8-3.92C99.66,61.22,100.88,59.95,100.88,58.12z M91.14,59.6v-2.98h5c1.27,0,2,0.54,2,1.48c0,0.97-0.71,1.5-2,1.5H91.14z"
			/>
		<path d="M113.7,54.58h-6.47v10.89h6.47c3.86,0,6.55-2.24,6.55-5.44C120.25,56.82,117.56,54.58,113.7,54.58z M113.41,63.43h-3.56
			v-6.81h3.56c2.46,0,4.05,1.34,4.05,3.41C117.46,62.1,115.87,63.43,113.41,63.43z"/>
		<path d="M133.08,58.86l-1.99-0.26c-2.2-0.29-2.8-0.53-2.8-1.1c0-0.76,1.2-1.16,3.47-1.16c1.68,0,3.79,0.42,5.01,0.82V55
			c-1.89-0.5-3.45-0.71-5.04-0.71c-3.91,0-6.15,1.25-6.15,3.44c0,1.7,1.31,2.57,4.51,2.99l1.5,0.2c2.53,0.34,3.26,0.69,3.26,1.57
			c0,0.78-1.33,1.25-3.55,1.25c-1.8,0-3.77-0.38-5.91-1.18v2.23c1.82,0.7,3.44,0.96,6.02,0.96l0,0c3.65,0,6.09-1.46,6.09-3.63
			C137.5,60.32,136.05,59.25,133.08,58.86z"/>
		<path d="M131.49,47.71c-3.65,0-7.08,1.62-9.41,4.38c-2.33-2.76-5.77-4.38-9.41-4.38c-3.65,0-7.08,1.62-9.41,4.38
			c-2.33-2.76-5.77-4.38-9.41-4.38c-3.65,0-7.08,1.62-9.41,4.38c-2.33-2.76-5.77-4.38-9.41-4.38c-3.65,0-7.08,1.62-9.41,4.38
			c-2.33-2.76-5.77-4.38-9.41-4.38c-3.65,0-7.09,1.62-9.41,4.38c-2.34-2.76-5.78-4.38-9.42-4.38c-3.65,0-7.08,1.62-9.41,4.38
			c-2.33-2.76-5.76-4.38-9.41-4.38c-6.8,0-12.34,5.55-12.34,12.38c0,6.83,5.53,12.38,12.34,12.38c3.65,0,7.08-1.62,9.41-4.38
			c2.33,2.76,5.77,4.38,9.41,4.38c3.65,0,7.08-1.62,9.41-4.38c2.33,2.76,5.77,4.38,9.41,4.38c3.65,0,7.08-1.62,9.41-4.38
			c2.33,2.76,5.77,4.38,9.41,4.38c3.65,0,7.08-1.62,9.41-4.38c2.33,2.76,5.77,4.38,9.41,4.38c3.65,0,7.08-1.62,9.41-4.38
			c2.33,2.76,5.77,4.38,9.41,4.38c3.65,0,7.08-1.62,9.41-4.38c2.33,2.76,5.77,4.38,9.41,4.38c6.8,0,12.34-5.55,12.34-12.38
			C143.81,53.26,138.28,47.71,131.49,47.71z M131.48,70.66c-3.46,0-6.7-1.71-8.67-4.57L122.06,65l-0.75,1.09
			c-1.96,2.86-5.2,4.57-8.67,4.57c-3.46,0-6.7-1.71-8.67-4.57L103.24,65l-0.75,1.09c-1.96,2.86-5.2,4.57-8.67,4.57
			c-3.46,0-6.7-1.71-8.67-4.57L84.41,65l-0.75,1.09c-1.96,2.86-5.2,4.57-8.67,4.57c-3.46,0-6.7-1.71-8.67-4.57L65.59,65l-0.75,1.09
			c-1.96,2.86-5.2,4.57-8.67,4.57c-3.46,0-6.7-1.71-8.67-4.57L46.76,65l-0.75,1.09c-1.96,2.86-5.2,4.57-8.67,4.57
			c-3.46,0-6.7-1.71-8.67-4.57L27.94,65l-0.75,1.09c-1.96,2.86-5.2,4.57-8.67,4.57c-5.81,0-10.53-4.74-10.53-10.57
			c0-5.83,4.72-10.57,10.53-10.57c3.46,0,6.7,1.71,8.67,4.57l0.75,1.09l0.75-1.09c1.96-2.86,5.2-4.57,8.67-4.57
			c3.46,0,6.71,1.71,8.68,4.57l0.75,1.08l0.74-1.08c1.96-2.86,5.2-4.57,8.67-4.57c3.46,0,6.7,1.71,8.67,4.57l0.75,1.09l0.75-1.09
			c1.96-2.86,5.2-4.57,8.67-4.57c3.46,0,6.7,1.71,8.67,4.57l0.75,1.09l0.75-1.09c1.96-2.86,5.2-4.57,8.67-4.57
			c3.46,0,6.7,1.71,8.67,4.57l0.75,1.09l0.75-1.09c1.96-2.86,5.2-4.57,8.67-4.57c3.46,0,6.7,1.71,8.67,4.57l0.75,1.09l0.75-1.09
			c1.96-2.86,5.2-4.57,8.67-4.57c5.8,0,10.52,4.74,10.52,10.57C142.01,65.91,137.28,70.66,131.48,70.66z"/>
	</g>
</g>
</svg>
