<?xml version="1.0" encoding="UTF-8"?>
<svg id="Calque_1" data-name="Calque 1" xmlns="http://www.w3.org/2000/svg" viewBox="0 0 150 34.5">
  <path d="m139.44,17.96c6.69-2.21,9.44-7.71,9.34-17.28h-7.97c.15,10.46-1.47,15.83-9.93,15.83h-.64v4.08h.88c6.04,0,11.06,2.7,10.91,13.91h7.97c.11-8.3-3.23-14.17-10.57-16.54h.01Z"/>
  <rect x="119.78" y=".68" width="7.97" height="33.82"/>
  <path d="m111.42,11.59c0-6.04-4.23-10.91-12.58-10.91h-19.46v33.82h7.97V4.76h8.61c4.87,0,7.52,2.85,7.52,6.83s-2.66,6.88-7.52,6.88h-5.8v4.08c0,6.68,3.04,11.95,10.46,11.95h10.12v-7.23h-11.5c-4.32,0-5.02-2.75-5.02-4.72h4.62c8.36,0,12.58-4.87,12.58-10.97Z"/>
  <path d="m54.81,0c-8.61,0-15.14,5.36-15.14,15.82v18.67h7.97V12.91c0-6.39,3.19-8.85,7.18-8.85s7.12,2.46,7.12,8.85v8.85c-3.1-2.46-7.47-3.29-11.8-3.29v4.08h.44c4.13,0,11.55,1.13,11.55,11.95h7.76V15.82C69.9,5.36,63.41,0,54.81,0Z"/>
  <path d="m7.97.68H0v33.82h7.76c0-10.82,7.42-11.95,11.55-11.95h.44v-4.08c-4.32,0-8.7.83-11.8,3.29V.68h.01Z"/>
  <rect x="22.26" y=".68" width="7.97" height="33.82"/>
</svg>