<?xml version="1.0" encoding="utf-8"?>
<!-- Generator: Adobe Illustrator 27.2.0, SVG Export Plug-In . SVG Version: 6.00 Build 0)  -->
<svg version="1.1" id="Calque_1" xmlns="http://www.w3.org/2000/svg" xmlns:xlink="http://www.w3.org/1999/xlink" x="0px" y="0px"
	 viewBox="0 0 150 46" style="enable-background:new 0 0 150 46;" xml:space="preserve">
<g>
	<g>
		<path d="M124.26,25.95h0.22c5.33,0,9.75,2.38,9.62,12.26h7.02c0.1-7.32-2.84-12.49-9.31-14.58c5.9-1.95,8.32-6.8,8.23-15.23h-7.02
			c0.13,9.23-1.3,13.95-8.75,13.95h-0.56v3.59h0.22H124.26z"/>
		<rect x="114.47" y="8.4" width="7.02" height="29.81"/>
		<path d="M85.87,11.99h7.58c4.29,0,6.63,2.51,6.63,6.02s-2.34,6.07-6.63,6.07h-5.11v3.6c0,5.89,2.69,10.53,9.23,10.53h8.93v-6.37
			H96.36c-3.81,0-4.42-2.43-4.42-4.16h4.07c7.37,0,11.09-4.29,11.09-9.66c0-5.33-3.73-9.62-11.09-9.62H78.85v29.81h7.02V11.99z"/>
		<path d="M50.87,19.19c0-5.63,2.82-7.8,6.33-7.8c3.47,0,6.28,2.17,6.28,7.8v7.8c-2.73-2.17-6.59-2.9-10.4-2.9v3.6h0.39
			c3.64,0,10.18,1,10.18,10.53h6.85V21.74c0-9.23-5.72-13.95-13.3-13.95c-7.58,0-13.35,4.72-13.35,13.95v16.46h7.02V19.19z"/>
		<path d="M25.91,27.68h0.39v-3.6c-3.81,0-7.67,0.74-10.4,2.9V8.4H8.88v29.81h6.85C15.73,28.68,22.27,27.68,25.91,27.68z"/>
		<rect x="28.51" y="8.4" width="7.02" height="29.81"/>
	</g>
</g>
</svg>
