<?xml version="1.0" encoding="utf-8"?>
<!-- Generator: Adobe Illustrator 27.2.0, SVG Export Plug-In . SVG Version: 6.00 Build 0)  -->
<svg version="1.1" id="Calque_1" xmlns="http://www.w3.org/2000/svg" xmlns:xlink="http://www.w3.org/1999/xlink" x="0px" y="0px"
	 viewBox="0 0 20.89 22" style="enable-background:new 0 0 20.89 22;" xml:space="preserve">
<path d="M0.94,16.98V5.03c0-2.26,1.82-4.07,4.07-4.07l10.88,0.02c2.24,0,4.05,1.83,4.05,4.07v11.91c0,2.25-1.82,4.07-4.06,4.07H5
	C2.76,21.05,0.94,19.22,0.94,16.98z M15.42,11.04c0-2.84-2.22-5.07-5-5.07s-5,2.24-5,5.07c0,2.83,2.28,5.05,5,5.05
	S15.42,13.79,15.42,11.04z M7.36,11.13c-0.04-1.88,1.33-3.24,3.07-3.24s3.07,1.3,3.07,3.16c0,1.86-1.63,3.36-3.58,3.05
	C8.5,13.88,7.39,12.57,7.36,11.13z M17.68,4.26C17.61,3.52,17.02,3,16.28,3c-0.79,0-1.41,0.6-1.41,1.42c0,0.82,0.65,1.46,1.48,1.41
	c0.79-0.04,1.4-0.79,1.32-1.58H17.68z"/>
</svg>
