<?xml version="1.0" encoding="UTF-8"?>
<svg id="Calque_1" data-name="Calque 1" xmlns="http://www.w3.org/2000/svg" viewBox="0 0 160.48 24.12">
  <path d="m148.24,0c-5.12,0-9.52,3.13-11.34,7.56-1.81-4.43-6.21-7.56-11.34-7.56s-9.52,3.13-11.34,7.56c-1.81-4.43-6.21-7.56-11.34-7.56s-9.52,3.13-11.34,7.55c-1.81-4.43-6.21-7.55-11.34-7.55s-9.52,3.13-11.34,7.56c-1.81-4.43-6.21-7.56-11.34-7.56s-9.52,3.13-11.34,7.56c-1.8-4.43-6.19-7.56-11.32-7.56s-9.52,3.13-11.34,7.56C21.75,3.13,17.35,0,12.22,0,5.48,0,0,5.41,0,12.06s5.48,12.06,12.22,12.06c5.12,0,9.52-3.13,11.34-7.56,1.81,4.43,6.21,7.56,11.34,7.56s9.52-3.13,11.34-7.56c1.81,4.43,6.21,7.56,11.34,7.56s9.52-3.13,11.34-7.56c1.81,4.43,6.21,7.56,11.34,7.56s9.52-3.13,11.34-7.55c1.81,4.43,6.21,7.55,11.34,7.55s9.52-3.13,11.34-7.56c1.81,4.43,6.21,7.56,11.34,7.56s9.52-3.13,11.34-7.56c1.81,4.43,6.21,7.56,11.34,7.56,6.74,0,12.22-5.41,12.22-12.06s-5.5-12.06-12.24-12.06ZM12.22,22.37c-5.76,0-10.44-4.63-10.44-10.31S6.46,1.75,12.22,1.75s10.45,4.63,10.45,10.31-4.69,10.31-10.45,10.31Zm22.67,0c-5.76,0-10.45-4.63-10.45-10.31S29.13,1.75,34.89,1.75s10.45,4.63,10.45,10.31-4.69,10.31-10.45,10.31Zm22.67,0c-5.76,0-10.44-4.63-10.44-10.31S51.8,1.75,57.56,1.75s10.45,4.63,10.45,10.31-4.69,10.31-10.45,10.31Zm22.67,0c-5.76,0-10.45-4.63-10.45-10.31s4.69-10.31,10.45-10.31,10.45,4.63,10.45,10.31-4.69,10.31-10.45,10.31Zm22.67,0c-5.76,0-10.45-4.63-10.45-10.31s4.69-10.31,10.45-10.31,10.45,4.63,10.45,10.31-4.69,10.31-10.45,10.31Zm22.67,0c-5.76,0-10.45-4.63-10.45-10.31s4.69-10.31,10.45-10.31,10.45,4.63,10.45,10.31-4.69,10.31-10.45,10.31Zm22.67,0c-5.76,0-10.44-4.63-10.44-10.31s4.69-10.31,10.44-10.31,10.45,4.63,10.45,10.31-4.69,10.31-10.45,10.31Z"/>
  <path d="m18.42,10.3c0-2.1-1.61-3.35-4.31-3.35h-7.48v10.24h2.63v-3.55h2.98l3.46,3.55h3.27l-3.57-3.65c1.9-.34,3.02-1.53,3.02-3.23Zm-2.73-.01c0,1.14-1.13,1.31-1.8,1.31h-4.63v-2.6h4.63c1.14,0,1.8.47,1.8,1.29Z"/>
  <path d="m32.27,13.08h7.56v-2.04h-7.56v-2.05h7.89v-2.04h-10.52v10.24h10.56v-2.04h-7.93v-2.05Z"/>
  <path d="m58.32,15.26c-2.88,0-4.17-1.61-4.17-3.22s1.29-3.18,4.17-3.18c1.52,0,2.92.31,4.04.88l.26.13v-2.51l-.13-.04c-1.65-.47-2.86-.66-4.17-.66-4.13,0-7,2.21-7,5.37s2.76,5.4,6.86,5.4c1.69,0,3.41-.25,4.61-.66l.12-.04v-2.44l-.24.09c-1.55.56-3.06.87-4.35.87h0Z"/>
  <path d="m80.23,6.67c-4.02,0-6.82,2.21-6.82,5.37s2.8,5.4,6.82,5.4,6.83-2.22,6.83-5.4-2.81-5.37-6.83-5.37Zm4.04,5.37c0,1.95-1.59,3.22-4.04,3.22s-4.03-1.26-4.03-3.22,1.58-3.18,4.03-3.18,4.04,1.25,4.04,3.18Z"/>
  <path d="m109.13,10.3c0-2.1-1.61-3.35-4.31-3.35h-7.48v10.24h2.63v-3.55h2.98l3.46,3.55h3.27l-3.57-3.65c1.9-.34,3.02-1.53,3.02-3.23Zm-2.73-.01c0,1.14-1.13,1.31-1.8,1.31h-4.63v-2.6h4.63c1.14,0,1.8.47,1.8,1.29Z"/>
  <path d="m126.31,6.94h-6.18v10.24h6.18c3.68,0,6.25-2.1,6.25-5.12s-2.57-5.12-6.25-5.12h0Zm3.46,5.12c0,1.9-1.43,3.07-3.73,3.07h-3.27v-6.15h3.27c2.27,0,3.73,1.21,3.73,3.07h0Z"/>
  <path d="m150.15,10.9l-1.88-.24c-1.99-.26-2.57-.47-2.57-.94,0-.64,1.13-1,3.19-1,1.58,0,3.36.39,4.5.75l.23.07v-2.18l-.13-.04c-1.78-.47-3.12-.66-4.62-.66-3.73,0-5.87,1.19-5.87,3.27s2.08,2.56,4.32,2.84l1.42.18c2.32.31,3,.61,3,1.38,0,.67-1.25,1.08-3.26,1.08-1.68,0-3.4-.35-5.41-1.09l-.24-.09v2.28l.11.04c1.7.63,3.23.87,5.63.87,3.48,0,5.82-1.38,5.82-3.44,0-1.72-1.39-2.74-4.23-3.11h0Z"/>
</svg>