<?xml version="1.0" encoding="utf-8"?>
<!-- Generator: Adobe Illustrator 27.2.0, SVG Export Plug-In . SVG Version: 6.00 Build 0)  -->
<svg version="1.1" id="Calque_1" xmlns="http://www.w3.org/2000/svg" xmlns:xlink="http://www.w3.org/1999/xlink" x="0px" y="0px"
	 viewBox="0 0 150 41" style="enable-background:new 0 0 150 41;" xml:space="preserve">
<g>
	<path d="M25.15,18.53c0-2.22-1.68-3.54-4.5-3.54h-7.86v10.89c0,0,0,0,0,0h2.62v-3.83h3.29l3.68,3.83l0,0c0,0,3.3,0.03,3.27,0
		l-3.8-3.92C23.92,21.64,25.15,20.36,25.15,18.53z M15.41,20.02v-2.98h5c1.27,0,2,0.54,2,1.48c0,0.97-0.71,1.5-2,1.5H15.41z"/>
	<polygon points="34.67,21.46 42.7,21.46 42.7,19.42 34.67,19.42 34.67,17.03 43.05,17.03 43.05,14.99 32.05,14.99 32.05,25.88 
		43.09,25.88 43.09,23.84 34.67,23.84 	"/>
	<g>
		<path d="M56.82,14.71c-4.33,0-7.36,2.28-7.36,5.72c0,3.44,2.89,5.75,7.2,5.75c1.78,0,3.61-0.26,4.87-0.71v-2.43
			c-1.66,0.61-3.34,0.94-4.72,0.94c-3.12,0-4.52-1.8-4.52-3.56c0-1.75,1.4-3.53,4.52-3.53c1.63,0,3.52,0.33,4.72,0.97
			c0.03,0.02,0-2.45,0-2.45C59.79,14.91,58.2,14.71,56.82,14.71z"/>
		<path d="M75.44,14.71c-4.21,0-7.16,2.33-7.16,5.72c0,3.38,2.94,5.75,7.16,5.75c4.22,0,7.17-2.38,7.17-5.75
			C82.61,17.06,79.65,14.71,75.44,14.71z M75.44,23.98c-2.65,0-4.37-1.42-4.37-3.56c0-2.14,1.71-3.53,4.37-3.53
			c2.66,0,4.38,1.36,4.38,3.53S78.09,23.98,75.44,23.98z"/>
		<path d="M100.88,18.54c0-2.22-1.68-3.54-4.5-3.54h-7.75c-0.06,0-0.1,0.05-0.1,0.1v10.78c0,0,0,0,0,0h2.62v-3.83h3.29l3.68,3.83
			h3.27l-3.8-3.92C99.66,21.64,100.88,20.37,100.88,18.54z M91.14,20.02v-2.98h5c1.27,0,2,0.54,2,1.48c0,0.97-0.71,1.5-2,1.5H91.14z
			"/>
		<path d="M113.7,15h-6.47v10.89h6.47c3.86,0,6.55-2.24,6.55-5.44C120.25,17.24,117.56,15,113.7,15z M113.41,23.85h-3.56v-6.81h3.56
			c2.46,0,4.05,1.34,4.05,3.41S115.87,23.85,113.41,23.85z"/>
		<path d="M133.08,19.27l-1.99-0.26c-2.2-0.29-2.8-0.53-2.8-1.1c0-0.76,1.2-1.16,3.47-1.16c1.68,0,3.79,0.42,5.01,0.82v-2.15
			c-1.89-0.5-3.45-0.71-5.04-0.71c-3.91,0-6.15,1.25-6.15,3.44c0,1.7,1.31,2.57,4.51,2.99l1.5,0.2c2.53,0.34,3.26,0.69,3.26,1.57
			c0,0.78-1.33,1.25-3.55,1.25c-1.8,0-3.77-0.38-5.91-1.18v2.23c1.82,0.7,3.44,0.96,6.02,0.96l0,0c3.65,0,6.09-1.46,6.09-3.63
			C137.5,20.74,136.05,19.66,133.08,19.27z"/>
		<path d="M131.49,8.12c-3.65,0-7.08,1.62-9.41,4.38c-2.33-2.76-5.77-4.38-9.41-4.38c-3.65,0-7.08,1.62-9.41,4.38
			c-2.33-2.76-5.77-4.38-9.41-4.38c-3.65,0-7.08,1.62-9.41,4.38c-2.33-2.76-5.77-4.38-9.41-4.38c-3.65,0-7.08,1.62-9.41,4.38
			c-2.33-2.76-5.77-4.38-9.41-4.38c-3.65,0-7.09,1.62-9.41,4.38c-2.34-2.76-5.78-4.38-9.42-4.38c-3.65,0-7.08,1.62-9.41,4.38
			c-2.33-2.76-5.76-4.38-9.41-4.38c-6.8,0-12.34,5.55-12.34,12.38s5.53,12.38,12.34,12.38c3.65,0,7.08-1.62,9.41-4.38
			c2.33,2.76,5.77,4.38,9.41,4.38c3.65,0,7.08-1.62,9.41-4.38c2.33,2.76,5.77,4.38,9.41,4.38c3.65,0,7.08-1.62,9.41-4.38
			c2.33,2.76,5.77,4.38,9.41,4.38c3.65,0,7.08-1.62,9.41-4.38c2.33,2.76,5.77,4.38,9.41,4.38c3.65,0,7.08-1.62,9.41-4.38
			c2.33,2.76,5.77,4.38,9.41,4.38c3.65,0,7.08-1.62,9.41-4.38c2.33,2.76,5.77,4.38,9.41,4.38c6.8,0,12.34-5.55,12.34-12.38
			S138.28,8.12,131.49,8.12z M131.48,31.07c-3.46,0-6.7-1.71-8.67-4.57l-0.75-1.09l-0.75,1.09c-1.96,2.86-5.2,4.57-8.67,4.57
			c-3.46,0-6.7-1.71-8.67-4.57l-0.75-1.09l-0.75,1.09c-1.96,2.86-5.2,4.57-8.67,4.57c-3.46,0-6.7-1.71-8.67-4.57l-0.75-1.09
			l-0.75,1.09c-1.96,2.86-5.2,4.57-8.67,4.57c-3.46,0-6.7-1.71-8.67-4.57l-0.75-1.09l-0.75,1.09c-1.96,2.86-5.2,4.57-8.67,4.57
			c-3.46,0-6.7-1.71-8.67-4.57l-0.75-1.09l-0.75,1.09c-1.96,2.86-5.2,4.57-8.67,4.57c-3.46,0-6.7-1.71-8.67-4.57l-0.75-1.09
			l-0.75,1.09c-1.96,2.86-5.2,4.57-8.67,4.57c-5.81,0-10.53-4.74-10.53-10.57c0-5.83,4.72-10.57,10.53-10.57
			c3.46,0,6.7,1.71,8.67,4.57l0.75,1.09l0.75-1.09c1.96-2.86,5.2-4.57,8.67-4.57c3.46,0,6.71,1.71,8.68,4.57l0.75,1.08l0.74-1.08
			c1.96-2.86,5.2-4.57,8.67-4.57c3.46,0,6.7,1.71,8.67,4.57l0.75,1.09l0.75-1.09c1.96-2.86,5.2-4.57,8.67-4.57
			c3.46,0,6.7,1.71,8.67,4.57l0.75,1.09l0.75-1.09c1.96-2.86,5.2-4.57,8.67-4.57c3.46,0,6.7,1.71,8.67,4.57l0.75,1.09l0.75-1.09
			c1.96-2.86,5.2-4.57,8.67-4.57c3.46,0,6.7,1.71,8.67,4.57l0.75,1.09l0.75-1.09c1.96-2.86,5.2-4.57,8.67-4.57
			c5.8,0,10.52,4.74,10.52,10.57C142.01,26.33,137.28,31.07,131.48,31.07z"/>
	</g>
</g>
</svg>
