<?xml version="1.0" encoding="utf-8"?>
<!-- Generator: Adobe Illustrator 27.2.0, SVG Export Plug-In . SVG Version: 6.00 Build 0)  -->
<svg version="1.1" id="Calque_1" xmlns="http://www.w3.org/2000/svg" xmlns:xlink="http://www.w3.org/1999/xlink" x="0px" y="0px"
	 viewBox="0 0 150 41" style="enable-background:new 0 0 150 41;" xml:space="preserve">
<g>
	<g>
		<path d="M46.02,24.07L46.02,24.07H44.6c-0.51,0-0.95,0.36-1.02,0.84c-0.04,0.28,0.04,0.57,0.23,0.78
			c0.19,0.21,0.45,0.34,0.74,0.34h12.64c0.28,0,0.55-0.12,0.74-0.34c0.19-0.21,0.27-0.5,0.23-0.78c-0.07-0.48-0.5-0.84-1.02-0.84
			h-7.88c-0.36,0-0.64-0.29-0.64-0.64v-1.25c0-0.35,0.29-0.64,0.64-0.64h5.6c0.51,0,0.95-0.36,1.02-0.84
			c0.04-0.28-0.04-0.57-0.23-0.78c-0.19-0.21-0.45-0.34-0.74-0.34h-5.65c-0.36,0-0.64-0.29-0.64-0.64v-1.25
			c0-0.35,0.29-0.64,0.64-0.64h7.84c0.51,0,0.95-0.36,1.02-0.84c0.04-0.28-0.04-0.57-0.23-0.78c-0.19-0.21-0.45-0.34-0.74-0.34H44.6
			c-0.51,0-0.95,0.36-1.02,0.84c-0.04,0.28,0.04,0.57,0.23,0.78c0.19,0.21,0.45,0.34,0.74,0.34h1.46c0.36,0,0.64,0.29,0.64,0.64
			v5.74C46.66,23.79,46.37,24.07,46.02,24.07z"/>
		<path d="M93.09,24.07h-1.19c-0.07,0-0.13-0.04-0.16-0.1l-4.46-8.36c-0.17-0.32-0.5-0.52-0.86-0.52h-6.01
			c-0.51,0-0.95,0.36-1.02,0.84c-0.04,0.28,0.04,0.57,0.23,0.78c0.19,0.21,0.45,0.34,0.74,0.34h1.79c0.08,0,0.15,0.04,0.19,0.11
			c0.04,0.07,0.04,0.15,0.01,0.22l-3.53,6.6c-0.03,0.06-0.09,0.1-0.16,0.1h-1.42c-0.51,0-0.95,0.36-1.02,0.84
			c-0.04,0.28,0.04,0.57,0.23,0.78c0.19,0.21,0.45,0.34,0.74,0.34l-0.01,0h5.24c0.51,0,0.95-0.36,1.02-0.84
			c0.04-0.28-0.04-0.57-0.23-0.78c-0.19-0.21-0.45-0.34-0.74-0.34h-1.19c-0.07,0-0.12-0.03-0.16-0.09c-0.03-0.06-0.03-0.12,0-0.18
			l0.36-0.68h7.38c0.13,0,0.25,0.07,0.31,0.19l0.26,0.49c0.03,0.06,0.03,0.12,0,0.18c-0.03,0.06-0.09,0.09-0.16,0.09h-1.02
			c-0.51,0-0.95,0.36-1.02,0.84c-0.04,0.28,0.04,0.57,0.23,0.78c0.19,0.21,0.45,0.34,0.74,0.34h4.93c0.28,0,0.55-0.12,0.74-0.34
			c0.19-0.21,0.27-0.5,0.23-0.78C94.04,24.43,93.61,24.07,93.09,24.07z M87.73,21c-0.07,0.11-0.18,0.17-0.31,0.17h-4.31
			c-0.13,0-0.24-0.07-0.31-0.17c-0.07-0.11-0.07-0.24-0.01-0.35h0.01l1.82-3.41c0.06-0.12,0.18-0.19,0.31-0.19h0.67
			c0.13,0,0.25,0.07,0.31,0.19l1.82,3.41C87.8,20.76,87.8,20.89,87.73,21z"/>
		<path d="M61.37,17.05h1.89c0.35,0,0.64,0.29,0.64,0.64v5.74c0,0.35-0.29,0.64-0.64,0.64h-1.17c-0.51,0-0.95,0.36-1.02,0.84
			c-0.04,0.28,0.04,0.57,0.23,0.78s0.45,0.34,0.74,0.34h6.87c0.51,0,0.95-0.36,1.02-0.84c0.04-0.28-0.04-0.57-0.23-0.78
			c-0.19-0.21-0.45-0.34-0.74-0.34h-2.46c-0.36,0-0.64-0.29-0.64-0.64V22.7c0-0.35,0.29-0.64,0.64-0.64h5.45l0.09-0.01
			c2.35-0.25,3.75-1.54,3.75-3.45c0-1.7-1.23-3.51-4.69-3.51h-9.67c-0.51,0-0.95,0.36-1.02,0.84c-0.04,0.28,0.04,0.57,0.23,0.78
			C60.81,16.93,61.08,17.05,61.37,17.05z M66.49,17.05h4.6c0.82,0,2.74,0.15,2.74,1.56c0,1.1-1.22,1.41-1.94,1.5h-5.39
			c-0.36,0-0.64-0.29-0.64-0.64v-1.78l0,0C65.85,17.34,66.14,17.05,66.49,17.05z"/>
		<path d="M97.21,26.02h8.02c0.51,0,0.95-0.36,1.02-0.84c0.04-0.28-0.04-0.57-0.23-0.78c-0.19-0.21-0.45-0.34-0.74-0.34h-2.42
			c-0.35,0-0.64-0.29-0.64-0.63v-5.75c0-0.35,0.29-0.63,0.64-0.63h2.42c0.28,0,0.55-0.12,0.74-0.34c0.19-0.21,0.27-0.5,0.23-0.78
			c-0.07-0.48-0.5-0.84-1.02-0.84h-7.96c-0.51,0-0.95,0.36-1.02,0.84c-0.04,0.28,0.04,0.57,0.23,0.78c0.19,0.21,0.45,0.34,0.74,0.34
			h2.42c0.35,0,0.64,0.29,0.64,0.63v5.75c0,0.35-0.29,0.63-0.64,0.63h-0.01h-2.37c-0.51,0-0.95,0.36-1.02,0.84
			c-0.04,0.28,0.04,0.57,0.23,0.78C96.66,25.9,96.93,26.02,97.21,26.02z"/>
		<path d="M26.22,17.05h1.03c0.35,0,0.64,0.28,0.64,0.63v5.75c0,0.35-0.28,0.63-0.64,0.63v0h-0.97c-0.51,0-0.95,0.36-1.02,0.84
			c-0.04,0.28,0.04,0.57,0.23,0.78c0.19,0.21,0.45,0.34,0.74,0.34h5.54c0.51,0,0.95-0.36,1.02-0.84c0.04-0.28-0.04-0.57-0.23-0.78
			c-0.19-0.21-0.45-0.34-0.74-0.34h-1.34c-0.35,0-0.64-0.28-0.64-0.63v-0.74c0-0.35,0.28-0.63,0.64-0.63h3.23
			c0.42,0,0.81,0.18,1.09,0.49l2.5,2.85c0.35,0.39,0.85,0.62,1.37,0.62h1.47c0.28,0,0.55-0.12,0.74-0.34
			c0.19-0.21,0.27-0.5,0.23-0.78c-0.07-0.48-0.5-0.84-1.02-0.84h-1.33l-1.88-2.12c1.69-0.39,2.89-1.77,2.89-3.37
			c0-1.92-1.72-3.48-3.84-3.48h-9.66c-0.51,0-0.95,0.36-1.02,0.84c-0.04,0.28,0.04,0.57,0.23,0.78
			C25.67,16.93,25.94,17.05,26.22,17.05z M29.85,17.68c0-0.35,0.28-0.63,0.64-0.63h5.45c1.04,0,1.88,0.69,1.88,1.53
			c0,0.84-0.84,1.53-1.88,1.53h-5.45c-0.35,0-0.64-0.28-0.64-0.63V17.68z"/>
		<path d="M40.5,29.82l-14.22-0.01c-0.51,0-0.95,0.36-1.02,0.84c-0.04,0.28,0.04,0.57,0.23,0.78c0.19,0.21,0.45,0.34,0.74,0.34
			l14.22,0.01c0.51,0,0.95-0.36,1.02-0.84c0.04-0.28-0.04-0.57-0.23-0.78C41.05,29.94,40.78,29.82,40.5,29.82z"/>
		<path d="M123.39,29.82l-13.17-0.01c-0.02,0-0.04,0-0.06,0.01l-12.9-0.01c-0.51,0-0.95,0.36-1.02,0.84
			c-0.04,0.28,0.04,0.57,0.23,0.78c0.19,0.21,0.45,0.34,0.74,0.34l22.12,0.01c0.01,0,0.02,0,0.04,0l3.97,0
			c0.51,0,0.95-0.36,1.02-0.84c0.04-0.28-0.04-0.57-0.23-0.78C123.94,29.94,123.67,29.82,123.39,29.82z"/>
		<path d="M57.19,29.82L44.6,29.81c-0.51,0-0.95,0.36-1.02,0.84c-0.04,0.28,0.04,0.57,0.23,0.78c0.19,0.21,0.45,0.34,0.74,0.34
			l12.59,0.01c0.51,0,0.95-0.36,1.02-0.84c0.04-0.28-0.04-0.57-0.23-0.78C57.74,29.94,57.48,29.82,57.19,29.82z"/>
		<path d="M93.14,29.82l-15.92-0.01c-0.02,0-0.05,0-0.07,0.01l-15.73-0.01c-0.51,0-0.95,0.36-1.02,0.84
			c-0.04,0.28,0.04,0.57,0.23,0.78c0.19,0.21,0.45,0.34,0.74,0.34l23.46,0.01c0.02,0,0.04,0,0.06,0l8.21,0
			c0.51,0,0.95-0.36,1.02-0.84c0.04-0.28-0.04-0.57-0.23-0.78C93.69,29.94,93.42,29.82,93.14,29.82z"/>
		<path d="M109.44,11.18l13.9,0.01c0.51,0,0.95-0.36,1.02-0.84c0.04-0.28-0.04-0.57-0.23-0.78c-0.19-0.21-0.45-0.34-0.74-0.34
			l-13.9-0.01c-0.51,0-0.95,0.36-1.02,0.84c-0.04,0.28,0.04,0.57,0.23,0.78C108.89,11.06,109.16,11.18,109.44,11.18z"/>
		<path d="M57.19,9.24L44.6,9.23c-0.02,0-0.04,0-0.07,0.01L26.28,9.23c-0.51,0-0.95,0.36-1.02,0.84c-0.04,0.28,0.04,0.57,0.23,0.78
			c0.19,0.21,0.45,0.34,0.74,0.34l30.23,0.01c0,0,0,0,0.01,0l0.68,0c0.51,0,0.95-0.36,1.02-0.84c0.04-0.28-0.04-0.57-0.23-0.78
			C57.74,9.36,57.48,9.24,57.19,9.24z"/>
		<path d="M61.37,11.18l12.66,0.01c0.51,0,0.95-0.36,1.02-0.84c0.04-0.28-0.04-0.57-0.23-0.78c-0.19-0.21-0.45-0.34-0.74-0.34
			L61.42,9.23c-0.51,0-0.95,0.36-1.02,0.84c-0.04,0.28,0.04,0.57,0.23,0.78C60.81,11.06,61.08,11.18,61.37,11.18z"/>
		<path d="M78.28,11.18l14.69,0.01c0.51,0,0.95-0.36,1.02-0.84c0.04-0.28-0.04-0.57-0.23-0.78c-0.19-0.21-0.45-0.34-0.74-0.34
			L78.33,9.23c-0.51,0-0.95,0.36-1.02,0.84c-0.04,0.28,0.04,0.57,0.23,0.78C77.73,11.06,78,11.18,78.28,11.18z"/>
		<path d="M97.21,11.18l8.02,0.01c0.51,0,0.95-0.36,1.02-0.84c0.04-0.28-0.04-0.57-0.23-0.78c-0.19-0.21-0.45-0.34-0.74-0.34
			l-8.02-0.01c-0.51,0-0.95,0.36-1.02,0.84c-0.04,0.28,0.04,0.57,0.23,0.78C96.66,11.06,96.93,11.18,97.21,11.18z"/>
		<path d="M109.44,17.05h1.03c0.35,0,0.64,0.28,0.64,0.63v5.75c0,0.35-0.28,0.63-0.64,0.63v0h-0.97c-0.51,0-0.95,0.36-1.02,0.84
			c-0.04,0.28,0.04,0.57,0.23,0.78c0.19,0.21,0.45,0.34,0.74,0.34h5.54c0.51,0,0.95-0.36,1.02-0.84c0.04-0.28-0.04-0.57-0.23-0.78
			c-0.19-0.21-0.45-0.34-0.74-0.34h-1.34c-0.35,0-0.64-0.28-0.64-0.63v-0.74c0-0.35,0.28-0.63,0.64-0.63h3.23
			c0.42,0,0.81,0.18,1.09,0.49l2.5,2.85c0.35,0.39,0.85,0.62,1.37,0.62h1.47c0.28,0,0.55-0.12,0.74-0.34
			c0.19-0.21,0.27-0.5,0.23-0.78c-0.07-0.48-0.5-0.84-1.02-0.84h-1.33l-1.88-2.12c1.69-0.39,2.89-1.77,2.89-3.37
			c0-1.92-1.72-3.48-3.84-3.48h-9.66c-0.51,0-0.95,0.36-1.02,0.84c-0.04,0.28,0.04,0.57,0.23,0.78
			C108.89,16.93,109.16,17.05,109.44,17.05z M113.07,17.68c0-0.35,0.28-0.63,0.64-0.63h5.45c1.04,0,1.88,0.69,1.88,1.53
			c0,0.84-0.84,1.53-1.88,1.53h-5.45c-0.35,0-0.64-0.28-0.64-0.63V17.68z"/>
	</g>
</g>
</svg>
