<?xml version="1.0" encoding="UTF-8"?>
<svg id="Calque_1" data-name="Calque 1" xmlns="http://www.w3.org/2000/svg" viewBox="0 0 92.53 24.12">
  <path d="m60.74,15.37l-4.52-8.35h-6.24v1.82h2.11l-3.6,6.53h-1.81v1.81h5.94v-1.82h-2.04l.46-.88h7.13l.41.88h-2.05v1.82h5.94v-1.81h-1.73Zm-8.76-2.7l2.08-3.83h1.03l2.15,3.83h-5.26Z"/>
  <g>
    <path d="m40.42,15.37h-3.57s0,0,0,0v-1.87h5.8c2.25,0,3.52-1.44,3.52-3.21,0-1.58-1.16-3.26-4.41-3.26h-9.13v1.82h2.37v6.53h-2.37v1.82h7.78v-1.82Zm1.35-6.53c1.02,0,2.57.14,2.57,1.45,0,1.03-.96,1.4-1.83,1.4h-5.66v-2.85s4.92,0,4.92,0Z"/>
    <path d="m2.25,8.83v6.53H0S0,17.18,0,17.18h6.28v-1.82h-2.2v-1.87h4.26l3.14,3.69h.89s2.4,0,2.4,0v-1.82h-2.32l-1.76-1.97c1.59-.36,2.71-1.65,2.71-3.14,0-1.78-1.61-3.24-3.6-3.24H0v1.82h2.25Zm1.83,0h5.72c.97,0,1.77.64,1.77,1.42s-.79,1.42-1.77,1.42h-5.72v-2.85Z"/>
    <rect x="0" y="20.7" width="14.77" height="1.82"/>
    <rect x="65.14" y="20.7" width="27.38" height="1.82"/>
    <rect x="32.64" y="20.7" width="29.83" height="1.82"/>
    <rect x="77.76" y="1.56" width="14.77" height="1.82"/>
    <rect x="0" y="1.56" width="29.96" height="1.82"/>
    <rect x="32.64" y="1.56" width="13.21" height="1.82"/>
    <rect x="48.52" y="1.56" width="13.95" height="1.82"/>
    <rect x="65.14" y="1.56" width="9.64" height="1.82"/>
    <polygon points="22 13.01 27.79 13.01 27.79 11.19 22 11.19 22 8.84 29.96 8.84 29.96 7.02 17.8 7.01 17.8 8.83 20.05 8.83 20.05 15.36 17.8 15.36 17.8 17.18 29.96 17.18 29.96 15.36 22 15.36 22 13.01"/>
    <rect x="17.8" y="20.7" width="12.16" height="1.82"/>
    <path d="m80.01,8.83v6.53h-2.25s0,1.81,0,1.81h6.28v-1.82h-2.2v-1.87h4.26l3.14,3.69h.89s2.4,0,2.4,0v-1.82h-2.32l-1.76-1.97c1.59-.36,2.71-1.65,2.71-3.14,0-1.78-1.61-3.24-3.6-3.24h-9.79v1.82h2.25Zm1.83,0h5.72c.97,0,1.77.64,1.77,1.42s-.79,1.42-1.77,1.42h-5.72v-2.85Z"/>
    <path d="m65.14,17.18h9.64v-1.82h-4.02s0,0,.11,0v-6.53s3.91,0,3.91,0v-1.82h-9.64v1.82h3.78s0,0,.11,0v6.53c-.11,0-.11,0-.11,0h-3.78v1.82Z"/>
  </g>
</svg>