<?xml version="1.0" encoding="utf-8"?>
<!-- Generator: Adobe Illustrator 27.2.0, SVG Export Plug-In . SVG Version: 6.00 Build 0)  -->
<svg version="1.1" id="Calque_1" xmlns="http://www.w3.org/2000/svg" xmlns:xlink="http://www.w3.org/1999/xlink" x="0px" y="0px"
	 viewBox="0 0 30 22" style="enable-background:new 0 0 30 22;" xml:space="preserve">
<path d="M28.93,4.14c-0.67-2.82-3.39-2.96-5.79-3.09c-1.92-0.11-14.35-0.11-16.27,0c-2.4,0.12-5.13,0.27-5.79,3.09
	C0.33,8,0.41,11.99,0.75,15.89c0.28,4.83,2.88,4.9,6.94,5.1h0c1.11,0.05,13.49,0.05,14.6,0c4.06-0.2,6.66-0.27,6.94-5.1
	C29.59,11.99,29.67,8,28.93,4.14z M12.1,15.34V6.63c2.52,1.46,5.02,2.9,7.52,4.35C19.52,11.08,12.23,15.3,12.1,15.34z"/>
</svg>
